<?xml version="1.0" encoding="UTF-8"?>
<svg id="Layer_1" data-name="Layer 1" xmlns="http://www.w3.org/2000/svg" viewBox="0 0 200 39.86">
  <g>
    <path d="M7.73,9.76c-.97,0-1.87.5-2.38,1.33L0,19.74h9.75c1,0,1.93-.54,2.43-1.41,1.63-2.86,3.27-5.71,4.9-8.57H7.73Z"/>
    <path d="M36.61,1.61c-.57-1-1.63-1.61-2.78-1.61H13.62l5.24,8.46c.58.94,1.61,1.52,2.72,1.52h8.9l-6.17,9.98h9.62c1.09,0,2.09-.58,2.63-1.52,1.61-2.82,3.22-5.64,4.84-8.45-1.6-2.79-3.19-5.58-4.79-8.37Z"/>
    <path d="M24.31,19.96l-11.73-.05c3.92,6.65,7.83,13.3,11.75,19.95,1.56-2.56,3.11-5.13,4.67-7.69.78-1.29.79-2.91.03-4.21l-4.71-8.01Z"/>
  </g>
  <g>
    <path d="M49.12,11.59h6.15v1.72c1.54-1.35,3.51-2.09,5.67-2.09,3.37,0,5.49,1.1,8.38,4.36l-4.25,3.04c-1.32-1.9-2.56-2.64-4.69-2.64-2.78,0-5.13,1.68-5.13,4.76v11.35h-6.15V11.59Z"/>
    <path d="M80.61,11.23c2.67,0,5.02,1.06,6.77,2.82v-2.45h6.15v20.5h-6.15v-2.27c-1.72,1.68-4.14,2.64-6.92,2.64-6.22,0-10.91-4.58-10.91-10.62s4.69-10.62,11.06-10.62ZM81.27,27.7c3.59,0,6.11-2.09,6.11-5.86s-2.86-5.86-5.93-5.86c-3.51,0-5.75,2.27-5.75,5.86s2.2,5.86,5.57,5.86Z"/>
    <path d="M112.68,25.25l5.31,2.45c-2.01,2.86-5.67,4.76-10,4.76-6.88,0-12.45-4.72-12.45-10.62s5.2-10.62,12.08-10.62c4.32,0,7.98,1.9,10,4.76l-5.31,2.45c-.92-1.35-2.6-2.45-4.69-2.45-3.48,0-5.93,2.56-5.93,5.86s2.82,5.86,6.3,5.86c2.09,0,3.77-1.1,4.69-2.45Z"/>
    <path d="M118.02,21.84c0-5.89,5.42-10.62,12.01-10.62,4.32,0,8.16,2.05,10.25,5.13.95,1.35,1.5,2.89,1.68,4.58l-15.34,5.6c1.06.73,2.38,1.17,3.84,1.17,2.09,0,3.77-1.1,4.69-2.45l5.31,2.45c-2.01,2.86-5.67,4.76-10,4.76-6.88,0-12.45-4.72-12.45-10.62ZM134.72,18.37c-1.06-1.46-2.78-2.38-4.69-2.38-3.22,0-5.86,2.56-5.86,5.86v.4l10.54-3.88Z"/>
    <path d="M143.84,28.65l3.44-3.84c2.2,1.83,5.05,2.89,7.62,2.89s4.61-.84,4.61-2.05c0-3.66-15.3-.29-15.3-7.76,0-3.88,4.28-6.66,10.29-6.66,3.77,0,7.8,1.39,10.87,3.81l-3.44,3.84c-2.01-1.83-4.8-2.89-7.32-2.89-2.27,0-4.25.59-4.25,1.68,0,3.88,15.3.33,15.3,8.02,0,4.03-4.39,6.77-10.87,6.77-3.62,0-7.73-1.39-10.95-3.81Z"/>
    <path d="M171.19,3.9c1.98,0,3.51,1.21,3.51,2.75s-1.54,2.75-3.51,2.75-3.51-1.21-3.51-2.75,1.54-2.75,3.51-2.75ZM168.11,11.59h6.15v20.5h-6.15V11.59Z"/>
    <path d="M200,32.1h-6.15v-11.35c0-3.08-2.45-4.76-5.38-4.76s-5.42,1.68-5.42,4.76v11.35h-6.15V11.59h6.15v2.09c1.83-1.57,4.28-2.45,6.96-2.45,5.42,0,10,3.62,10,9.52v11.35Z"/>
  </g>
</svg>