<?xml version="1.0" encoding="UTF-8"?>
<svg id="Layer_1" data-name="Layer 1" xmlns="http://www.w3.org/2000/svg" viewBox="0 0 41.39 39.86">
  <path d="M7.73,9.76c-.97,0-1.87.5-2.38,1.33L0,19.74h9.75c1,0,1.93-.54,2.43-1.41,1.63-2.86,3.27-5.71,4.9-8.57H7.73Z"/>
  <path d="M36.61,1.61c-.57-1-1.63-1.61-2.78-1.61H13.62l5.24,8.46c.58.94,1.61,1.52,2.72,1.52h8.9l-6.17,9.98h9.62c1.09,0,2.09-.58,2.63-1.52,1.61-2.82,3.22-5.64,4.84-8.45-1.6-2.79-3.19-5.58-4.79-8.37Z"/>
  <path d="M24.31,19.96l-11.73-.05c3.92,6.65,7.83,13.3,11.75,19.95,1.56-2.56,3.11-5.13,4.67-7.69.78-1.29.79-2.91.03-4.21l-4.71-8.01Z"/>
</svg>